<?xml version="1.0" standalone="no"?>
<!DOCTYPE svg PUBLIC "-//W3C//DTD SVG 1.1//EN" "http://www.w3.org/Graphics/SVG/1.1/DTD/svg11.dtd" >
<!--
2013-9-30: Created.
-->
<svg>
<metadata>
Created by iconfont
</metadata>
<defs>

<font id="iconfont" horiz-adv-x="1024" >
  <font-face
    font-family="iconfont"
    font-weight="500"
    font-stretch="normal"
    units-per-em="1024"
    ascent="896"
    descent="-128"
  />
    <missing-glyph />
    
    <glyph glyph-name="x" unicode="x" horiz-adv-x="1001"
d="M281 543q-27 -1 -53 -1h-83q-18 0 -36.5 -6t-32.5 -18.5t-23 -32t-9 -45.5v-76h912v41q0 16 -0.5 30t-0.5 18q0 13 -5 29t-17 29.5t-31.5 22.5t-49.5 9h-133v-97h-438v97zM955 310v-52q0 -23 0.5 -52t0.5 -58t-10.5 -47.5t-26 -30t-33 -16t-31.5 -4.5q-14 -1 -29.5 -0.5
t-29.5 0.5h-32l-45 128h-439l-44 -128h-29h-34q-20 0 -45 1q-25 0 -41 9.5t-25.5 23t-13.5 29.5t-4 30v167h911zM163 247q-12 0 -21 -8.5t-9 -21.5t9 -21.5t21 -8.5q13 0 22 8.5t9 21.5t-9 21.5t-22 8.5zM316 123q-8 -26 -14 -48q-5 -19 -10.5 -37t-7.5 -25t-3 -15t1 -14.5
t9.5 -10.5t21.5 -4h37h67h81h80h64h36q23 0 34 12t2 38q-5 13 -9.5 30.5t-9.5 34.5q-5 19 -11 39h-368zM336 498v228q0 11 2.5 23t10 21.5t20.5 15.5t34 6h188q31 0 51.5 -14.5t20.5 -52.5v-227h-327z" />
    

    
    <glyph glyph-name="peishi" unicode="&#58880;" d="M720.896 653.312q47.104-28.672 86.528-68.096t67.072-88.064 43.008-103.424 15.36-114.176q0-91.136-34.304-165.888t-93.696-128.512-138.24-83.456-168.96-29.696q-91.136 0-170.496 29.696t-138.752 83.456-93.696 128.512-34.304 165.888q0 58.368 14.848 113.152t42.496 102.4 66.56 87.552 86.016 68.608q-2.048 12.288-1.536 27.648t2.56 35.84q0 18.432 17.92 44.544t48.64 50.176 71.68 40.448 88.064 16.384q46.08 0 87.04-16.384t71.68-40.448 48.128-50.176 17.408-44.544q2.048-18.432 1.536-33.792t-2.56-27.648zM407.552 801.792q-22.528-11.264-33.28-27.648t-5.632-27.648q6.144-11.264 26.112-10.24t41.472 13.312q22.528 11.264 33.792 27.648t5.12 27.648-26.112 10.24-41.472-13.312zM497.664-36.86400000000003q71.68 0 134.144 22.528t109.568 64 74.24 99.84 27.136 130.048q0 56.32-17.408 108.032t-48.128 94.208-73.728 74.752-94.208 49.664q-23.552 5.12-50.688 11.264t-55.808 7.168l-5.12 0-6.144 0q-21.504-1.024-41.984-4.096t-40.96-7.168q-55.296-14.336-102.912-46.08t-81.92-75.776-53.76-98.304-19.456-113.664q0-71.68 27.136-130.048t74.24-99.84 110.592-64 135.168-22.528z"  horiz-adv-x="1024" />

    
    <glyph glyph-name="shuma" unicode="&#58955;" d="M836.382437 661.519618 585.326541 661.519618c-11.032264 50.039673-55.656601 87.63492-108.965737 87.63492L282.926256 749.154537c-53.492308 0-98.280374-37.861306-109.069091-88.186482-62.197574-5.578042-111.112634-57.925271-111.112634-121.532961l0-397.617903c0-67.303872 54.759161-122.084523 122.084523-122.084523L836.382437 19.732669c67.325361 0 122.085546 54.779627 122.085546 122.084523L958.467983 539.434072C958.467983 606.738967 903.707798 661.519618 836.382437 661.519618zM282.926256 696.62209l193.434547 0c24.029276 0 44.665269-14.467503 53.881165-35.103496L229.065558 661.518594C238.28043 682.15561 258.89698 696.62209 282.926256 696.62209zM905.935536 141.816169c0-38.370913-31.200606-69.552076-69.553099-69.552076L184.829054 72.264093c-38.352493 0-69.573565 31.181163-69.573565 69.552076L115.255489 539.434072c0 38.35147 31.221072 69.552076 69.573565 69.552076L836.382437 608.986147c38.352493 0 69.553099-31.200606 69.553099-69.552076L905.935536 141.816169zM440.338379 571.31006c-127.213333 0-230.683916-103.491049-230.683916-230.683916 0-127.193891 103.470583-230.683916 230.683916-230.683916 127.192867 0 230.683916 103.490026 230.683916 230.683916C671.022295 467.819011 567.531246 571.31006 440.338379 571.31006zM440.338379 162.49514c-98.239442 0-178.151469 79.890538-178.151469 178.131003 0 98.239442 79.911004 178.150446 178.151469 178.150446 98.218976 0 178.131003-79.911004 178.131003-178.150446C618.469382 242.385679 538.557354 162.49514 440.338379 162.49514zM806.939871 501.103068m-38.331004 0a37.458 37.458 0 1 0 76.662007 0 37.458 37.458 0 1 0-76.662007 0Z"  horiz-adv-x="1024" />

    
    <glyph glyph-name="muying" unicode="&#58893;" d="M676.750222-209.724444c-21.333333 0-45.169778 2.446222-70.428444 5.12-60.245333 6.200889-128.512 6.200889-188.700444 0-25.258667-2.673778-49.095111-5.12-70.428444-5.12-22.698667 0-55.580444 2.446222-79.132444 23.836444-20.878222 18.944-31.004444 49.038222-31.004444 91.989333L237.056 308.988444c0 161.223111 132.892444 161.223111 273.635556 161.223111 143.416889 0 276.366222 0 276.366222-161.223111l0-402.887111C787.000889-197.720889 724.138667-209.724444 676.750222-209.724444zM512-155.566222c35.328 0 69.006222-3.527111 98.816-6.599111 24.234667-2.56 46.421333-4.892444 65.991111-4.892444 45.795556 0 67.584 10.922667 67.584 73.159111L744.391111 308.988444c0 113.265778-79.246222 118.556444-231.025778 118.556444-154.396444 0-233.585778-5.290667-233.585778-118.556444l0-402.887111c0-30.264889 5.575111-50.005333 17.009778-60.416 17.180444-15.530667 61.610667-13.710222 116.451556-7.907556C442.936889-159.036444 476.672-155.566222 512-155.566222zM702.805333 432.778667l-42.666667 0 0 66.56c0 86.528-66.446222 156.956444-148.138667 156.956444-81.692444 0-148.138667-70.428444-148.138667-156.956444l0-66.56-42.666667 0 0 66.56C321.194667 609.361778 406.755556 698.961778 512 698.961778s190.805333-89.543111 190.805333-199.623111L702.805333 432.778667zM597.390222 653.905778l-42.666667 0c0 55.978667-5.006222 113.152-42.097778 113.152-37.091556 0-42.097778-57.173333-42.097778-113.152l-42.666667 0c0 46.648889 0 155.818667 84.764444 155.818667C597.390222 809.724444 597.390222 700.554667 597.390222 653.905778zM560.298667 242.087111l194.673778 0 0-42.666667-194.673778 0 0 42.666667ZM555.861333 146.115556l194.616889 0 0-42.666667-194.616889 0 0 42.666667ZM560.298667 50.087111l194.673778 0 0-42.666667-194.673778 0 0 42.666667Z"  horiz-adv-x="1024" />

    
    <glyph glyph-name="nanzhuang" unicode="&#58894;" d="M763.505778-157.045333 263.111111-157.045333 263.111111 412.412444l42.666667 0 0-526.791111 415.061333 0L720.839111 413.777778l193.706667 0 39.879111 176.184889-231.082667 115.541333c-17.351111-41.870222-68.266667-117.361778-210.033778-117.361778l0 42.666667c157.127111 0 175.559111 103.765333 176.241778 108.145778l4.608 28.672 309.361778-154.453333L948.679111 371.111111l-185.173333 0L763.505778-157.045333zM305.948444 371.111111 75.320889 371.111111 20.536889 613.116444l309.134222 154.567111 4.721778-28.444444c0.796444-4.323556 21.504-108.487111 178.858667-108.487111l0-42.666667c-141.994667 0-194.275556 75.946667-212.252444 117.589333L69.575111 589.905778 109.454222 413.777778l196.494222 0L305.948444 371.111111zM739.555556 392.387556"  horiz-adv-x="1024" />

    
    <glyph glyph-name="juan" unicode="&#59374;" d="M1009.770667 502.464C1018.282667 505.472 1024 513.5360000000001 1024 522.602667l0 131.242667c0 52.352-42.56 94.976-94.912 94.976L94.976 748.821333c-52.352 0-94.954667-42.624-94.954667-94.976l0-131.242667c0-9.045333 5.696-17.130667 14.250667-20.138667C64.426667 484.736 98.133333 437.141333 98.133333 384c0-53.12-33.706667-100.757333-83.882667-118.506667C5.696 262.54933300000005 0 254.421333 0 245.37599999999998l0-131.242667c0-52.330667 42.602667-94.954667 94.954667-94.954667L929.066667 19.17866700000002c52.330667 0 94.933333 42.624 94.933333 94.954667l0 131.242667c0 9.045333-5.674667 17.130667-14.229333 20.117333-50.218667 17.749333-83.946667 65.365333-83.946667 118.506667S959.552 484.714667 1009.770667 502.464zM883.114667 384c0-66.048 38.869333-125.717333 98.154667-152.981333l0-116.885333c0-28.778667-23.402667-52.202667-52.202667-52.202667L94.954667 61.93066699999997c-28.8 0-52.224 23.424-52.224 52.202667l0 116.885333c59.264 27.264 98.133333 86.933333 98.133333 152.981333 0 66.048-38.869333 125.738667-98.133333 152.981333l0 116.864c0 28.8 23.402667 52.224 52.224 52.224L929.066667 706.069333c28.778667 0 52.202667-23.402667 52.202667-52.224l0-116.864C921.962667 509.717333 883.114667 450.048 883.114667 384zM683.690667 503.466667l-144.682667 0 86.293333 86.208c8.384 8.362667 8.384 21.888 0 30.229333-8.341333 8.341333-21.824 8.341333-30.208 0L512 536.896l-83.008 82.986667c-8.384 8.362667-21.866667 8.362667-30.208 0-8.362667-8.362667-8.362667-21.866667 0-30.208l86.229333-86.208-144.768 0c-11.776 0-21.354667-9.557333-21.354667-21.354667 0-11.797333 9.578667-21.376 21.354667-21.376l150.4 0 0-79.893333L364.8 380.842667c-11.818667 0-21.376-9.557333-21.376-21.376 0-11.818667 9.557333-21.333333 21.376-21.333333l125.845333 0 0-174.869333c0-11.84 9.557333-21.376 21.354667-21.376 11.84 0 21.376 9.578667 21.376 21.376L533.376 338.133333l125.76 0c11.861333 0 21.418667 9.536 21.418667 21.333333s-9.536 21.376-21.376 21.376l-125.781333 0 0 79.893333 150.357333 0c11.776 0 21.312 9.6 21.312 21.376C705.045333 493.888 695.509333 503.466667 683.690667 503.466667z"  horiz-adv-x="1024" />

    
    <glyph glyph-name="neiyi" unicode="&#58905;" d="M705.040063-15.18765499999995c-69.40472 0-135.017066 28.16241-182.858678 77.903278L501.423619 62.71562300000005c-47.815005-49.739844-113.428376-77.903278-182.844352-77.903278-140.082432 0-254.057253 113.974821-254.057253 254.058276 0 79.485309 36.21583 152.915715 99.359962 201.484897 16.587793 12.743232 40.203654 10.553357 54.114478-5.079692 54.661947-61.298088 145.941883-146.862859 272.631284-209.733769l42.346457 0c126.691447 62.87091 217.983663 148.435681 272.643564 209.733769 13.911848 15.614629 37.528732 17.822924 54.116525 5.079692 63.144132-48.570205 99.358939-122.000612 99.358939-201.484897C959.093223 98.78716599999996 845.122495-15.18765499999995 705.040063-15.18765499999995zM483.575112 142.52429700000005l56.453756 0c11.897981 0 23.173792-5.311982 30.760584-14.482853 33.319873-40.294728 82.252329-63.417355 134.25061-63.417355 96.085382 0 174.243463 78.159104 174.243463 174.246533 0 42.280966-14.963807 82.083483-41.904389 113.360837-62.156642-64.221674-154.995073-143.239332-277.813307-202.526623-5.417383-2.622734-11.340279-3.974521-17.353227-3.974521l-60.819181 0c-6.013971 0-11.93789 1.351787-17.35425 3.974521C341.23322 208.993151 248.393765 288.010809 186.237123 352.232482c-26.940582-31.277354-41.904389-71.079872-41.904389-113.360837 0-96.087429 78.160127-174.246533 174.246533-174.246533 52.010561 0 100.94404 23.109324 134.236284 63.417355C460.388017 137.212314 471.677131 142.52429700000005 483.575112 142.52429700000005zM179.625542 368.80901900000003c-0.143263 0-0.298805 0-0.442068 0-22.029736 0.232291-39.71042 18.289552-39.476083 40.332591 1.234107 115.889427 15.199167 385.448746 117.897154 385.448746 95.411023 0 114.621551-229.667773 117.571742-366.574886 0.479931-22.029736-16.990976-40.281425-39.036062-40.749076-22.147416-0.62217-40.268122 17.004279-40.74703 39.035038-3.001357 138.744971-22.23849 230.393297-37.854143 270.598998-16.432251-41.978067-36.435841-139.777487-38.019918-288.615327C219.283774 386.396583 201.462896 368.80901900000003 179.625542 368.80901900000003zM834.716494 368.80901900000003c-21.837354 0-39.660278 17.587564-39.892569 39.476083-1.583055 148.824537-21.586644 246.63112-38.004569 288.621467-15.628956-40.198537-34.866089-131.841747-37.868469-270.605138-0.467651-22.030759-19.250436-39.658232-40.748053-39.035038-22.043039 0.467651-39.514969 18.71934-39.035038 40.749076 2.949168 136.907113 22.160719 366.574886 117.597325 366.574886 102.670357 0 116.635417-269.559319 117.867478-385.448746 0.23536-22.043039-17.444301-40.101323-39.474037-40.332591C835.0153 368.80901900000003 834.859757 368.80901900000003 834.716494 368.80901900000003z"  horiz-adv-x="1024" />

    
    <glyph glyph-name="bag" unicode="&#59112;" d="M896 576l-128 0 0 9C768 722 658 832 521 832l-16 0C368 832 256 722 256 585l0-9L128 576 64-64l896 0L896 576zM320 585c0 101.4 83.6 183 185 183l15 0 1 0c101.4 0 183-81.6 183-183l0-9L320 576 320 585zM135.6 0l49.8 512L256 512l0-72.6c-19.2-11-32-31.8-32-55.4 0-35.4 28.6-64 64-64s64 28.6 64 64c0 23.6-12.8 44.4-32 55.4L320 512l384 0 0-72.6c-19.2-11-32-31.8-32-55.4 0-35.4 28.6-64 64-64s64 28.6 64 64c0 23.6-12.8 44.4-32 55.4L768 512l70.8 0 49.8-512L135.6 0z"  horiz-adv-x="1024" />

    
    <glyph glyph-name="xiangbao" unicode="&#59109;" d="M512 384c-36.266667 0-64-27.733333-64-64 0-36.266667 27.733333-64 64-64s64 27.733333 64 64C576 356.266667 548.266667 384 512 384zM512 298.66666699999996c-12.8 0-21.333333 8.533333-21.333333 21.333333s8.533333 21.333333 21.333333 21.333333 21.333333-8.533333 21.333333-21.333333S524.8 298.66666699999996 512 298.66666699999996zM853.333333 512l-55.466667 0C763.733333 708.266667 648.533333 853.333333 512 853.333333S260.266667 708.266667 226.133333 512L170.666667 512c-70.4 0-128-57.6-128-128 0-23.466667 6.4-40.533333 6.4-40.533333l128-377.6c0 0 14.933333-51.2 76.8-51.2l512 0c64 0 81.066667 61.866667 81.066667 61.866667l123.733333 366.933333c4.266667 12.8 6.4 25.6 6.4 40.533333C981.333333 454.4 923.733333 512 853.333333 512zM512 810.666667c115.2 0 211.2-125.866667 243.2-298.666667L268.8 512C300.8 684.8 396.8 810.666667 512 810.666667zM808.533333-10.666666999999961c0 0-8.533333-32-40.533333-32L256-42.66666699999996c-32 0-40.533333 32-40.533333 32L138.666667 215.46666700000003c102.4-53.333333 236.8-87.466667 384-87.466667 136.533333 0 260.266667 27.733333 358.4 74.666667L808.533333-10.666666999999961zM932.266667 349.866667l-32-91.733333C802.133333 204.79999999999995 669.866667 170.66666699999996 522.666667 170.66666699999996c-162.133333 0-305.066667 40.533333-405.333333 104.533333l-25.6 76.8c0 0-6.4 17.066667-6.4 34.133333 0 46.933333 38.4 85.333333 85.333333 85.333333l682.666667 0c46.933333 0 85.333333-38.4 85.333333-85.333333C938.666667 366.93333299999995 932.266667 349.866667 932.266667 349.866667z"  horiz-adv-x="1024" />

    
    <glyph glyph-name="erweima" unicode="&#59357;" d="M192 512l128 0L320 640 192 640 192 512zM64-64l384 0L448 320 64 320 64-64zM128 256l256 0 0-256L128 0 128 256zM192 64l128 0 0 128L192 192 192 64zM512 768l0-384 384 0L896 768 512 768zM832 448 576 448 576 704l256 0L832 448zM832 192l-128 0L704 320 576 320 512 320l0-128 0-256 64 0 0 256 64 0 0-64 192 0 64 0L896 320l-64 0L832 192zM64 384l384 0L448 768 64 768 64 384zM128 704l256 0 0-256L128 448 128 704zM768 640l-128 0 0-128 128 0L768 640zM832-64l64 0 0 128-64 0L832-64zM704-64l64 0 0 128-64 0L704-64z"  horiz-adv-x="1024" />

    
    <glyph glyph-name="phone" unicode="&#58886;" d="M667.381371 830.497147L355.949386 830.497147c-54.926984 0-99.612719-45.848211-99.612719-102.202707l0-687.414125c0-56.353472 44.685735-102.20066 99.612719-102.20066l311.431985 0c54.92596 0 99.610672 45.847188 99.610672 102.20066L766.992043 728.29444C766.99102 784.648936 722.306308 830.497147 667.381371 830.497147zM728.569966 40.880314999999996c0-35.166941-27.449165-63.778582-61.188594-63.778582L355.949386-22.898267000000033c-33.740452 0-61.189617 28.611641-61.189617 63.778582l0 49.753147 433.810197 0L728.569966 40.880314999999996zM728.569966 129.05553999999995l-433.810197 0L294.759769 686.166971l433.810197 0L728.569966 129.05553999999995zM728.569966 724.590072l-433.810197 0 0 3.704368c0 35.167964 27.449165 63.779605 61.189617 63.779605l311.431985 0c33.739429 0 61.188594-28.611641 61.188594-63.779605L728.569966 724.590072zM511.664867 33.86862099999996m-37.604456 0a36.748 36.748 0 1 1 75.208912 0 36.748 36.748 0 1 1-75.208912 0Z"  horiz-adv-x="1024" />

    
    <glyph glyph-name="user" unicode="&#59149;" d="M340.8 444.8c0-94.552 76.649-171.2 171.2-171.2s171.2 76.649 171.2 171.2c0 94.552-76.649 171.2-171.2 171.2-94.552 0-171.2-76.649-171.2-171.2zM512 235.20000000000005c-144 0-272-68.8-353.6-176 88-96 214.4-155.2 353.6-155.2 139.2 0 265.6 59.2 353.6 155.2-81.6 107.2-209.6 176-353.6 176zM512 864c-265.6 0-480-214.4-480-480 0-112 38.4-214.4 100.8-294.4 67.2 86.4 163.2 148.8 275.2 172.8-64 36.8-105.6 104-105.6 182.4 0 115.2 94.4 209.6 209.6 209.6 115.2 0 209.6-94.4 209.6-209.6 0-78.4-43.2-145.6-105.6-182.4 110.4-24 206.4-86.4 275.2-172.8 62.4 80 100.8 182.4 100.8 294.4 0 265.6-214.4 480-480 480z"  horiz-adv-x="1024" />

    
    <glyph glyph-name="xiezi" unicode="&#59165;" d="M914.961096 214.23861799999997l-36.497239 0c0.025583 0 0.211824-0.37146 0.211824 0l0 71.191412c0 7.506974-6.074346 13.580297-13.580297 13.580297-23.712051 0-93.856621 23.288402-142.145417 55.495942-2.228761 1.484817-4.852518 2.28095-7.532557 2.28095-54.853305 0-120.886231-15.09172-151.137209-47.829332-3.673669 4.270257-7.372921 8.620331-11.140735 13.049201-46.113247 54.144154-98.378611 115.52206-187.369412 162.112168-17.770735 9.323343-41.85527 21.140483-69.626777 34.243919-9.628288 4.548596-11.432377 13.44829-9.906627 20.264533 1.524726 6.817266 6.949272 14.098089 17.59882 14.098089 24.919553 0 45.197388 20.277836 45.197388 45.197388L349.03286 616.17385c0 24.919553-20.277836 46.231951-45.197388 46.231951l-194.796568 0c-24.919553 0-45.197388-21.312398-45.197388-46.231951l0-25.065885c0-31.28554 5.066389-62.080917 14.283308-86.708827 1.366114-3.660366 3.382027-7.002484 5.689582-10.159384 0.571005-1.789763 1.471514-3.514033 2.825348-4.999874 29.111015-31.922037 52.78418-197.946304 52.78418-370.065384 0-7.505951 6.074346-13.580297 13.580297-13.580297l75.581396 0c7.505951 0 13.580297 6.074346 13.580297 13.580297 0 140.447752 49.865711 194.134489 124.745119 231.592612 0.715291 0.344854 1.193175 0.942465 1.816369 1.406023 57.107649-39.793308 95.487771-86.131683 130.130779-128.491443 52.026934-63.632249 96.960309-118.086465 183.192276-118.086465l232.911654 0c24.919553 0 45.197388 19.255553 45.197388 44.190455L960.159508 168.006667C960.158485 192.939523 939.880649 214.23861799999997 914.961096 214.23861799999997zM711.411167 329.601042c44.163849-28.520567 105.117083-51.225685 140.102898-56.55711l0-58.805314c0-0.37146 0.171915 0 0.211824 0L719.845257 214.23861799999997c-59.679217 0-97.821933 30.688953-137.462768 74.587765C602.781074 314.13069900000005 660.841422 328.83254 711.411167 329.601042zM215.16292 132.75479199999995l-48.632627 0c-0.88823 106.894565-12.028964 259.126712-39.402405 336.167343 49.89334-21.047362 142.105508-60.675918 194.054671-87.850837 7.532557-3.938706 14.681374-8.049327 21.670555-12.227486C277.017686 333.32792400000005 218.583832 277.12794699999995 215.16292 132.75479199999995zM932.998915 149.78465400000005c0-9.973142-8.090259-17.029862-18.037818-17.029862L682.049442 132.75479199999995c-73.354682 0-112.543216 47.426149-162.172543 108.114346-45.11757 55.197136-96.243995 117.483738-186.096419 164.512844-63.340607 33.128515-184.836729 84.083024-220.578768 98.949616-4.588505 1.89721-8.010441 5.278213-9.641591 9.641591-7.983835 21.352307-12.559037 49.428759-12.559037 77.133751L91.001085 616.17385c0 9.946536 8.090259 19.071358 18.036795 19.071358l194.796568 0c9.946536 0 18.036795-9.124821 18.036795-19.071358l0-18.249643c0-9.946536-8.090259-18.036795-18.036795-18.036795-21.643949 0-39.362496-14.190187-44.097334-35.304064-4.734838-21.139459 5.238304-41.550325 24.814152-50.78157 27.055193-12.758582 51.43137-24.747637 68.619844-33.739429 84.334757-44.162826 134.771473-102.889345 179.280176-155.161872 54.083779-63.500243 100.779288-117.823476 187.394994-117.823476l195.115839 0c9.94756 0 18.037818-9.123798 18.037818-19.071358L932.999938 149.78465400000005z"  horiz-adv-x="1024" />

    
    <glyph glyph-name="jujia" unicode="&#59193;" d="M108.338962 339.397153c-3.125177 0-6.29845 0.444115-9.407254 1.364067-14.295588 4.173043-24.291243 17.515932-24.291243 32.429597 0 226.358401 171.46314 387.602805 428.411233 405.072689L503.051699 815.912987c0 8.979512 7.266497 16.247033 16.247033 16.247033 8.979512 0 16.246009-7.267521 16.246009-16.247033l0-68.540026-15.516392-0.698918C273.059538 735.58345 107.133507 585.49206 107.133507 373.19081700000004l2.427282-0.650823c1.824555 2.839675 45.661969 69.539796 139.238204 69.539796 52.246945 0 100.891851-26.019607 130.132826-69.571519 0.444115-0.222057 2.491751-0.25378 3.1569 0.23843 25.987884 38.870286 84.058464 64.937988 127.879506 70.475098 8.948813 0.952698 17.040095-5.219885 18.150382-14.104229 1.12666-8.900717-5.188162-17.024745-14.08888-18.150382-36.127825-4.552689-85.342714-26.955932-105.175411-56.577576-6.091742-9.091052-16.72287-14.501272-28.462239-14.517645l-0.016373 0c-11.741415 0.016373-22.370497 5.441942-28.447912 14.549368-23.164582 34.523281-61.734016 55.165414-103.128799 55.165414-75.093279 0-110.474091-52.436256-111.948675-54.674227C130.615315 345.124598 119.666962 339.397153 108.338962 339.397153zM545.778826 74.92059600000005L545.778826 404.890796c28.114314-7.979742 52.785204-25.765827 69.381184-50.501184 6.092765-9.091052 16.72287-14.517645 28.463262-14.501272l0.031722 0c11.740392 0 22.370497 5.441942 28.41619 14.501272 23.14821 34.556027 61.702294 55.197136 103.127775 55.197136 62.004169 0 112.806205-56.260351 114.837468-58.513672 9.217942-10.613732 24.196075-14.453177 37.316907-9.503445 13.153578 4.854565 22.0062 17.579377 22.0062 31.620162-0.031722 223.518726-184.694489 398.027226-429.537893 405.944546-8.31334 0.76134-16.483416-6.727215-16.753569-15.691377-0.301875-8.979512 6.742565-16.48444 15.70775-16.770965 226.913033-7.346315 398.058948-167.908174 397.281235-374.640586l-1.64957 0.523933c-6.331195 7.107885-64.098877 69.523423-139.207505 69.523423-52.294017 0-100.938923-26.019607-129.894396-69.349461-0.682545-0.491187-2.697435-0.460488-3.157923-0.223081-25.352411 37.761022-65.652256 62.686714-110.584608 68.350714l-18.277272 2.316765 0-368.255155c0-58.767452-47.803749-106.58655-106.571201-106.58655s-106.587574 47.819099-106.587574 106.58655c0 8.979512-7.266497 16.247033-16.246009 16.247033s-16.247033-7.267521-16.247033-16.247033c0-76.695776 62.384839-139.079592 139.080615-139.079592C483.393987-64.158996 545.778826-1.7751799999999776 545.778826 74.92059600000005z"  horiz-adv-x="1024" />

    
    <glyph glyph-name="love" unicode="&#59205;" d="M513.401929 17.369855c-20.164249 0-207.085452 164.513868-289.018509 253.203816-46.00273 49.79715-91.849918 133.603881-91.849918 194.943924 0 130.201387 94.799086 236.113579 211.332173 236.113579 71.160713 0 131.555222-59.236126 168.815847-120.437 37.260625 61.200874 97.632621 120.437 168.814824 120.437 116.526947 0 211.32808-105.912192 211.32808-236.113579 0-61.476143-41.280172-148.617829-92.28073-195.33585C710.48047 187.678706 534.73991 17.369855 513.401929 17.369855z"  horiz-adv-x="1024" />

    
    <glyph glyph-name="meizhuang" unicode="&#58977;" d="M691.620626-88.401572C688.468914-89.990896 613.339651-128.026938 511.973062-128.026938 412.869241-128.026938 335.800463-90.125585 332.567938-88.509323 324.594377-84.522542 319.583964-76.44123 319.583964-67.605662L319.583964 328.055368C319.583964 335.517112 323.166679 342.520916 329.254601 346.911762 335.315584 351.329546 343.073644 352.595618 350.346825 350.386726 350.4007 350.386726 350.723952 350.278975 351.289644 350.117349L351.289644 597.917309C351.289644 610.847408 361.876163 621.326176 374.967888 621.326176L375.722144 621.326176 375.722144 828.342449C375.722144 835.885007 379.385672 842.942686 385.554407 847.333532L447.75357 891.592183C456.5622 897.895606 468.630293 897.38379 476.927106 890.406924L639.927167 752.997684C645.233895 748.526025 648.250918 742.034038 648.250918 735.164923L648.250918 621.326176 649.032112 621.326176C662.123837 621.326176 672.710356 610.847408 672.710356 597.917309L672.710356 350.198162C673.760926 350.467539 674.461307 350.656103 674.54212 350.683041 681.626737 352.541743 689.250107 351.060169 695.122527 346.642385 700.96801 342.224601 704.389098 335.355486 704.389098 328.055368L704.389098-67.605662C704.389098-76.333479 699.459498-84.333978 691.620626-88.401572ZM600.921368 724.362902 460.333479 842.861872 423.051694 816.355169 423.051694 621.326176 600.921368 621.326176 600.921368 724.362902ZM625.380806 574.508442 624.572675 574.508442 399.37345 574.508442 398.646132 574.508442 398.646132 342.70948C422.51294 337.241125 468.172352 328.432495 514.963148 328.136181 543.059175 328.351682 571.936396 331.368705 597.284778 335.19386 608.787179 337.348876 618.323127 339.611644 625.380806 341.551158L625.380806 574.508442ZM657.032611 298.477766C642.890315 295.433805 624.491861 291.958841 603.965329 288.861005 584.650994 285.359103 560.595622 282.557582 532.580408 281.722513 532.55347 281.722513 532.526532 281.722513 532.499594 281.722513 527.435306 281.560886 522.613456 281.264572 517.27979 281.264572 516.256158 281.264572 515.232525 281.318447 514.208892 281.318447 513.454636 281.318447 512.70038 281.264572 511.973062 281.264572 451.309348 281.264572 398.457568 290.611956 366.940452 297.750448L366.940452-52.358921C391.184387-62.164246 446.729938-81.209204 511.973062-81.209204 578.967138-81.209204 633.381305-62.298934 657.032611-52.547485L657.032611 298.477766ZM443.254974 369.781875C433.449648 369.781875 425.503025 377.647685 425.503025 387.345259L425.503025 542.8297C425.503025 552.527274 433.449648 560.393084 443.254974 560.393084 453.060299 560.393084 461.006922 552.527274 461.006922 542.8297L461.006922 387.345259C461.006922 377.647685 453.060299 369.781875 443.254974 369.781875Z"  horiz-adv-x="1024" />

    
    <glyph glyph-name="jiafang" unicode="&#58944;" d="M432.7424 409.2928l13.2096 0c16.5888 0 30.1056 13.5168 30.1056 30.1056l0 15.5648c0 16.5888-13.5168 30.1056-30.1056 30.1056l-13.2096 0c-16.6912 0-30.1056-13.5168-30.1056-30.1056l0-15.5648C402.6368 422.7072 416.1536 409.2928 432.7424 409.2928zM579.584 409.2928l13.2096 0c16.5888 0 30.1056 13.5168 30.1056 30.1056l0 15.5648c0 16.5888-13.5168 30.1056-30.1056 30.1056L579.584 485.0688c-16.6912 0-30.1056-13.5168-30.1056-30.1056l0-15.5648C549.4784 422.7072 562.8928 409.2928 579.584 409.2928zM432.7424 560.8448000000001l13.2096 0c16.5888 0 30.1056 13.5168 30.1056 30.1056l0 15.5648c0 16.5888-13.5168 30.1056-30.1056 30.1056l-13.2096 0c-16.6912 0-30.1056-13.5168-30.1056-30.1056l0-15.5648C402.6368 574.2592 416.1536 560.8448000000001 432.7424 560.8448000000001zM579.584 560.8448000000001l13.2096 0c16.5888 0 30.1056 13.5168 30.1056 30.1056l0 15.5648c0 16.5888-13.5168 30.1056-30.1056 30.1056L579.584 636.6207999999999c-16.6912 0-30.1056-13.5168-30.1056-30.1056l0-15.5648C549.4784 574.2592 562.8928 560.8448000000001 579.584 560.8448000000001zM830.1568 548.1472L756.736 548.1472l0 151.552c0 41.7792-32.9728 75.776-73.4208 75.776L340.6848 775.4752c-40.5504 0-73.4208-33.9968-73.4208-75.776l0-151.552-73.4208 0c-40.5504 0-73.4208-33.9968-73.4208-75.776l0-384.6144L120.4224 43.00800000000004l0-25.2928c0-13.9264 10.9568-25.2928 24.4736-25.2928 13.4144 0 24.4736 11.3664 24.4736 25.2928L169.3696 43.00800000000004l0 44.8512 0 81.5104 685.1584 0 0-81.5104L854.528 43.00800000000004l0-25.2928c0-13.9264 10.9568-25.2928 24.4736-25.2928 13.4144 0 24.4736 11.3664 24.4736 25.2928L903.4752 43.00800000000004l0 44.8512L903.4752 472.3712C903.5776 514.1504 870.6048 548.1472 830.1568 548.1472zM756.736 497.664l73.4208 0c13.5168 0 24.4736-11.3664 24.4736-25.2928l0-151.552L751.7184 320.8192c2.7648 7.9872 5.0176 16.2816 5.0176 25.2928L756.736 497.664zM316.2112 699.6992c0 13.9264 10.9568 25.2928 24.4736 25.2928l342.6304 0c13.5168 0 24.4736-11.3664 24.4736-25.2928L707.7888 346.11199999999997c0-13.9264-10.9568-25.2928-24.4736-25.2928L340.6848 320.8192c-13.5168 0-24.4736 11.3664-24.4736 25.2928L316.2112 497.664l0 50.4832L316.2112 699.6992zM193.8432 497.664L267.264 497.664l0 0 0-151.552c0-8.9088 2.1504-17.3056 4.9152-25.2928L169.3696 320.8192l0 151.552C169.3696 486.2976 180.4288 497.664 193.8432 497.664zM169.3696 219.8528L169.3696 270.336l171.3152 0 342.6304 0 171.3152 0 0-50.4832L169.3696 219.8528z"  horiz-adv-x="1024" />

    
    <glyph glyph-name="dianqi" unicode="&#58954;" d="M832.162 107.582c0-6.262-20.779-107.222-88.998-107.222H301.166c-113.634-11.475-115.912 128.038-115.912 134.301v496.55C173.865 745.098 289.414 776.55 295.676 776.55l408.461-8.54c6.262 0 128.025 0 123.443-109.466l4.582-550.962zM837.474 350.05l4.977-1.134-4.977 1.134zM717.396-33.695H298.684c-75.987 0-137.808 61.821-137.808 137.818V660.988c0 75.987 61.821 137.808 137.808 137.808h418.712c75.997 0 137.818-61.821 137.818-137.808v-556.864c0-75.997-61.821-137.819-137.818-137.819zM298.684 757.468c-53.194 0-96.48-43.276-96.48-96.48v-556.864c0-53.204 43.286-96.49 96.48-96.49h418.712c53.204 0 96.49 43.286 96.49 96.49V660.988c0 53.204-43.286 96.48-96.49 96.48H298.684zM813.886 605.776H326.865c-11.412 0-20.664 9.252-20.664 20.664s9.252 20.664 20.664 20.664h487.021c11.412 0 20.664-9.252 20.664-20.664s-9.252-20.664-20.664-20.664zM699.473 700.336m-23.61 0a23.61 23.61 0 1 1 47.22 0 23.61 23.61 0 1 1-47.22 0ZM508.04 103.498c-117.013 0-212.202 95.188-212.202 212.202s95.189 212.212 212.202 212.212S720.251 432.713 720.251 315.7 625.053 103.498 508.04 103.498z m0 383.085c-94.22 0-170.873-76.653-170.873-170.883 0-94.22 76.653-170.873 170.873-170.873 94.23 0 170.883 76.653 170.883 170.873 0 94.23-76.653 170.883-170.883 170.883zM409.582 295.036c-11.412 0-20.664 9.252-20.664 20.664 0 65.686 53.436 119.122 119.122 119.122 11.412 0 20.664-9.252 20.664-20.664s-9.252-20.664-20.664-20.664c-42.892 0-77.793-34.901-77.793-77.793-0.001-11.413-9.253-20.665-20.665-20.665z"  horiz-adv-x="1024" />

    
    <glyph glyph-name="nvzhuang" unicode="&#58968;" d="M276.59 754.769s52.83-176.353 66.506-225.587 24.617-87.526-54.704-191.463-166.845-125.818-169.581-185.992c-2.735-60.174-7.021-79.099 19.146-103.937 32.292-30.653 104.874-45.844 158.641-54.704 43.6-7.184 188.789-56.915 265.313-27.352l76.525 29.563s35.618 14.2 106.733 3.26 102.32-8.462 125.819 13.676 57.695 54.935 30.087 114.878S676.79 397.895 665.849 430.717s1.693 125.562 19.146 177.787c17.454 52.225 19.146 155.906 19.146 155.906L567.382 808.172s-24.096-88.849-67.983-87.161c-42.32 1.628-79.717 73.485-79.717 73.485L276.59 754.769zM837.474 350.05l4.977-1.134-4.977 1.134zM429.476 268.702l209.986-0.508M915.548 159.911c-12.068 23.723-23.857 40.73-50.463 72.781l-29.664 35.564c-32.877 39.387-72.533 86.895-103.829 125.661-2.645 3.286-5.714 6.799-9.041 10.622-10.468 11.998-22.527 25.824-30.984 43.913a21.034 21.034 0 0 1-1.356 3.009c-11.083 25.567-14.795 59.478 2.449 108.125 31.028 87.597 46.196 155.315 43.871 195.921l-1.942 33.291-174.791 45.09-15.622-35.626c-10.653-24.24-32.691-50.339-41.97-50.752-6.861 0-24.684 11.427-47.942 54.245l-17.761 32.65-172.239-51.641 0.868-34.882c0.083-3.616 2.624-89.953 46.413-182.696 17.73-37.609 31.379-68.4 32.443-93.507 0.413-9.774 1.395-32.691-33.89-70.012-6.447-6.819-31.018-30.563-57.024-55.712-35.202-34.014-75.095-72.574-91.224-89.478-69.084-72.388-78.3-125.6-73.857-157.485 3.844-27.608 19.673-50.876 44.553-65.527 10.074-5.931 23.041-2.583 28.972 7.522 5.931 10.064 2.573 23.041-7.501 28.972-13.907 8.183-22.018 19.921-24.105 34.882-2.583 18.536 2.108 59.08 62.562 122.417 15.529 16.284 55.102 54.534 90.015 88.279 27.494 26.575 51.248 49.533 58.357 57.055 42.652 45.09 46.351 79.187 45.421 100.885-1.395 33.001-16.645 67.759-36.452 109.77-40.007 84.745-42.3 162.403-42.383 165.668l-0.062 2.604 108.386 32.464 1.323-2.438c27.515-50.649 56.135-76.335 85.996-76.335h0.031c46.733 1.984 79.486 75.281 79.827 76.046l1.168 2.666 110.029-28.393 0.145-2.48c1.953-33.993-13.174-99.355-41.495-179.327-18.423-51.97-16.788-92.137-7.136-123.279-26.287-13.841-90.025-38.599-177.141-13.479-11.273 3.224-22.969-3.244-26.203-14.465-3.234-11.221 3.234-22.958 14.465-26.203 31.307-9.03 60.093-12.523 85.913-12.523 55.656 0 97.478 16.241 120.776 28.235 9.144-14.586 19.209-26.127 27.213-35.302 2.934-3.348 5.641-6.447 7.987-9.361 31.441-38.953 71.262-86.647 104.284-126.199l29.592-35.502c27.122-32.671 35.894-46.413 45.286-64.907 17.648-34.758 18.939-69.929 3.451-94.086-12.461-19.425-34.737-29.426-62.045-28.517-18.546 1.943-35.481 5.063-51.868 8.08-49.636 9.154-96.524 17.792-169.956-9.712-42.094-18.268-90.521-30.088-123.368-30.088-92.443 0-175.246 41.391-184.38 46.123-10.425 5.331-23.155 1.281-28.517-9.093-5.362-10.373-1.292-23.144 9.092-28.517 16.428-8.493 103.488-50.835 203.805-50.835 38.777 0 92.515 12.874 139.207 33.187 61.446 22.958 98.952 16.056 146.46 7.315 17.183-3.162 34.944-6.447 56.507-8.638 43.199-1.839 80.106 15.746 100.699 47.859 23.67 36.927 23.163 87.803-1.355 136.096z"  horiz-adv-x="1024" />

    
    <glyph glyph-name="meishi" unicode="&#58892;" d="M457.82016 515.24096c0-33.73056 27.34592-61.0816 61.0816-61.0816 33.72544 0 61.07648 27.34592 61.07648 61.0816s-27.35104 61.07648-61.07648 61.07648c-33.73568 0-61.0816-27.34592-61.0816-61.07648zM761.06752 458.01984a17.54112 17.54112 0 0 1 14.66368-8.07424 17.49504 17.49504 0 0 1 14.7968 26.92096c-0.53248 0.82432-54.00064 86.52288-8.02816 144.55296 25.40032 32.08192 29.99296 72.61696 13.30176 117.23264-11.9296 31.85152-30.73536 54.73792-31.50848 55.71072a17.5104 17.5104 0 0 1-24.64256 2.31936 17.5104 17.5104 0 0 1-2.34496-24.61696c0.84992-1.03424 60.45696-74.97728 17.75104-128.91648-61.50656-77.65504 3.2256-180.76672 6.01088-185.12896z m117.4016-0.52736a17.57184 17.57184 0 0 1 14.6688-8.07424 17.4592 17.4592 0 0 1 9.4976 2.7648 17.4848 17.4848 0 0 1 5.31968 24.15616c-0.52736 0.8192-54.00576 86.52288-8.02816 144.55296 25.3952 32.08192 29.98784 72.61696 13.29664 117.23264-11.9296 31.85152-30.72512 54.73792-31.50848 55.7056a17.48992 17.48992 0 1 1-26.97728-22.27712c0.60928-0.7424 60.53376-74.86976 17.75104-128.91648-61.51168-77.69088 3.19488-180.80768 5.98016-185.14432z m-734.54592-4.72064a17.55136 17.55136 0 0 1 14.6688-8.07424h0.08192c3.49184 0 6.74304 1.02912 9.472 2.80064a17.44896 17.44896 0 0 1 5.2224 24.1152c-0.52736 0.82432-54.00064 86.52288-8.03328 144.55296 25.40032 32.08192 29.99296 72.61184 13.30176 117.23264-11.9296 31.8464-30.72512 54.73792-31.50848 55.7056a17.50016 17.50016 0 0 1-26.9824-22.27712c0.60928-0.73728 60.53376-74.86976 17.74592-128.91648-61.48096-77.68576 3.24608-180.79744 6.03136-185.1392z m117.40672-0.55296a17.57696 17.57696 0 0 1 14.6688-8.07424 17.46432 17.46432 0 0 1 14.7968 26.91584c-0.52736 0.82432-54.00064 86.528-8.02816 144.55296 25.3952 32.08192 29.99296 72.61696 13.32224 117.23264-11.9296 31.85152-30.73024 54.73792-31.5136 55.71072a17.50016 17.50016 0 0 1-26.9824-22.27712c0.60928-0.73728 60.53888-74.86976 17.75104-128.91136-61.53216-77.69088 3.20512-180.78208 5.98528-185.14944z m591.64672-365.88544h-0.1024A21.0944 21.0944 0 0 0 831.8976 107.52c0.79872 174.28992-140.3648 316.73344-314.68032 317.54752h-1.4848c-173.63456 0-315.28448-140.83584-316.0832-314.66496a21.0688 21.0688 0 0 0-21.07904-20.97664h-0.1024a21.08416 21.08416 0 0 0-20.97664 21.18144c0.91648 196.992 161.4592 356.61824 358.23104 356.61824h1.69984c197.55008-0.9216 357.5552-162.36544 356.62336-359.91552a21.08416 21.08416 0 0 0-21.0688-20.97664zM869.99552-62.30016h-0.31232l-705.1264 3.25632c-20.49024 0.08192-40.22784 10.02496-54.1696 27.29472-13.12256 16.24064-20.29568 37.51936-20.19328 59.96032 0.11264 22.43584 7.47008 43.65824 20.736 59.776 14.08 17.10592 33.39776 26.18368 54.4256 26.7776l460.86144-2.14016a21.0944 21.0944 0 0 0 20.98176-21.18656c-0.06656-11.648-8.68864-21.2992-21.18656-20.97664l-460.97408 2.14528c-10.57792 0-18.04288-7.14752-21.55008-11.42784-7.01952-8.51968-11.07456-20.59776-11.136-33.1776-0.06144-12.55424 3.8912-24.67328 10.82368-33.28512 3.49184-4.3008 10.9312-11.56608 21.56032-11.60704l705.2544-3.2512c10.57792 0 18.05312 7.13728 21.5552 11.4176 7.01952 8.5248 11.07968 20.62336 11.136 33.1776 0.06144 12.55936-3.89632 24.6784-10.8288 33.28512-3.49696 4.30592-10.92608 11.5712-21.55008 11.61728l-105.20064 0.49152a21.08416 21.08416 0 0 0 0.09728 42.15808h0.10752l105.18528-0.49152c20.48-0.08704 40.21248-10.02496 54.15936-27.29472 13.12768-16.24576 20.29056-37.52448 20.18816-59.96032-0.10752-22.42048-7.47008-43.63776-20.72576-59.78112-14.02368-17.01888-33.7408-26.7776-54.1184-26.7776z m-350.99648 496.256c-45.31712 0-82.18112 36.864-82.18112 82.18112 0 45.31712 36.864 82.19136 82.18112 82.19136 45.32736 0 82.19136-36.87424 82.19136-82.19136s-36.86912-82.18112-82.19136-82.18112z m0 122.21952c-22.0672 0-40.02816-17.96096-40.02816-40.0384 0-22.0672 17.96096-40.02816 40.02816-40.02816 22.06208 0 40.02816 17.96096 40.02816 40.02816 0.00512 22.07744-17.96608 40.0384-40.02816 40.0384z"  horiz-adv-x="1024" />

    
    <glyph glyph-name="wenti" unicode="&#59000;" d="M999.04982 697.425652L825.43283 871.032402a85.318594 85.318594 0 0 1-120.615424 0L33.747549 199.95230500000002c-0.317436-0.317436-0.419835-0.74751-0.716791-1.085426a28.24156 28.24156 0 0 1-5.242813-7.89494c-0.081919-0.184318-0.225277-0.348156-0.307197-0.542713a28.31324 28.31324 0 0 1-1.945575-8.007578L0.119817-96.99367500000005a28.446358 28.446358 0 0 1 28.323479-31.006325c0.860149 0 1.710058 0 2.570207 0.112639l279.425563 25.405116a28.364439 28.364439 0 0 1 8.017818 1.945575c0.194558 0.081919 0.368635 0.235517 0.563193 0.317436a28.221081 28.221081 0 0 1 7.87446 5.232574c0.327676 0.296956 0.75775 0.399355 1.085426 0.716791l533.39481 533.394809 0.081919 0.0512s0 0.061439 0.051199 0.081919l137.541929 137.541929a85.390273 85.390273 0 0 1 0 120.625664z m-411.745158-24.30945l213.828958-213.828958-493.264761-493.264761L94.039901 179.85144100000002zM59.838737-68.17868199999998l16.824105 185.013965 168.189859-168.189859z m899.009355 685.180398L841.345588 499.499212 627.50639 713.3179299999999 745.019134 830.830674a28.405398 28.405398 0 0 0 40.211968 0l173.61699-173.59651a28.497557 28.497557 0 0 0 0-40.232448zM333.273976 176.83068000000003a28.333719 28.333719 0 0 1 20.100864 8.325014l254.040926 254.030686a28.426902 28.426902 0 1 1-40.201728 40.201728L313.173112 225.35742200000004a28.425878 28.425878 0 0 1 20.100864-48.526742z"  horiz-adv-x="1024" />

    


  </font>
</defs>
</svg>
